<?xml version="1.0" encoding="UTF-8"?>
<svg id="Layer_2" data-name="Layer 2" xmlns="http://www.w3.org/2000/svg" viewBox="0 0 153.41 153.1">
  <defs>
    <style>
      .cls-1 {
        fill: #fff;
      }
    </style>
  </defs>
  <g id="Layer_1-2" data-name="Layer 1">
    <path d="M76.78,153.1C34.32,153.06-.01,118.88,0,76.65.01,34.34,34.3.07,76.68,0c42.55-.07,76.87,34.38,76.73,77.04-.13,42.07-34.41,76.09-76.63,76.05ZM72.36,75.99c.96-.94,1.86-1.69,2.6-2.58,4.12-4.96,4.88-10.49,2.32-16.34-2.4-5.48-6.82-7.88-12.76-7.82-7.99.08-15.99.06-23.98,0-2.53-.02-4.08.54-4.07,3.56.08,16.15,0,32.3.13,48.45,0,1.11,1.35,3.17,2.05,3.15,10.79-.17,21.76.49,32.29-1.32,9.78-1.68,13.33-13.6,7.51-21.48-1.54-2.08-3.85-3.59-6.09-5.62ZM122.35,94.5c-4.54-2.09-7.72-3.14-11.91.4-2.22,1.88-7.25,1.47-10.65.63-3.11-.77-5.32-3.73-4.69-8.14,8.28,0,16.43-.26,24.55.1,4.81.21,5.64-1.81,5.08-5.93-1.16-8.55-6.58-15.1-14.56-17.2-8.85-2.32-17.69.53-22.83,7.36-4.83,6.42-5.38,16.23-1.12,23.12,4.47,7.24,11.29,10.17,19.53,9.7,6.94-.4,12.81-3,16.61-10.04ZM91.02,58.58c8.35,0,16.25.09,24.15-.13.81-.02,2.13-1.87,2.2-2.93.07-1.14-1.03-3.37-1.67-3.39-8.17-.23-16.35-.15-24.67-.15v6.61Z"/>
    <path class="cls-1" d="M72.36,75.99c2.25,2.04,4.56,3.54,6.09,5.62,5.82,7.88,2.27,19.8-7.51,21.48-10.54,1.81-21.51,1.15-32.29,1.32-.7.01-2.04-2.05-2.05-3.15-.13-16.15-.05-32.3-.13-48.45-.01-3.02,1.54-3.58,4.07-3.56,7.99.07,15.99.08,23.98,0,5.94-.06,10.36,2.34,12.76,7.82,2.56,5.85,1.8,11.38-2.32,16.34-.74.89-1.64,1.63-2.6,2.58ZM47.38,95.21c5.88,0,11.17.27,16.43-.09,4.08-.28,6.22-3.08,6.08-7.14-.14-4.02-2.34-6.64-6.46-6.89-4.31-.26-8.65-.27-12.95.03-1.09.08-2.85,1.7-2.96,2.76-.37,3.58-.14,7.21-.14,11.32ZM56.36,58.75c-9.96.16-8.9-2.18-8.99,9.4,0,.66-.2,1.49.12,1.96.56.84,1.41,2.06,2.18,2.09,4.32.16,8.68.33,12.96-.12,3.68-.39,5.36-3.15,5.28-6.76-.08-3.59-1.81-6.07-5.56-6.53-1.97-.24-3.99-.04-5.98-.04Z"/>
    <path class="cls-1" d="M122.35,94.5c-3.8,7.04-9.67,9.64-16.61,10.04-8.25.48-15.06-2.46-19.53-9.7-4.26-6.89-3.71-16.7,1.12-23.12,5.14-6.83,13.98-9.68,22.83-7.36,7.98,2.1,13.4,8.64,14.56,17.2.56,4.12-.26,6.14-5.08,5.93-8.12-.36-16.27-.1-24.55-.1-.63,4.41,1.58,7.37,4.69,8.14,3.4.84,8.43,1.25,10.65-.63,4.18-3.54,7.37-2.49,11.91-.4ZM113.61,80.39c-.59-6.03-4.34-9.42-9.76-9.21-5.26.2-8.76,3.8-8.86,9.21h18.62Z"/>
    <path class="cls-1" d="M91.02,58.58v-6.61c8.32,0,16.5-.08,24.67.15.64.02,1.74,2.25,1.67,3.39-.06,1.06-1.39,2.91-2.2,2.93-7.89.22-15.8.13-24.15.13Z"/>
    <path d="M47.38,95.21c0-4.11-.23-7.75.14-11.32.11-1.05,1.87-2.68,2.96-2.76,4.3-.31,8.65-.29,12.95-.03,4.12.25,6.32,2.87,6.46,6.89.14,4.07-2.01,6.87-6.08,7.14-5.25.36-10.55.09-16.43.09Z"/>
    <path d="M56.36,58.75c2,0,4.02-.2,5.98.04,3.75.46,5.48,2.93,5.56,6.53.08,3.61-1.6,6.37-5.28,6.76-4.28.45-8.64.28-12.96.12-.77-.03-1.63-1.25-2.18-2.09-.31-.47-.12-1.3-.12-1.96.09-11.58-.96-9.23,8.99-9.4Z"/>
    <path d="M113.61,80.39h-18.62c.09-5.42,3.59-9.01,8.86-9.21,5.43-.21,9.17,3.19,9.76,9.21Z"/>
  </g>
</svg>