<?xml version="1.0" encoding="UTF-8"?>
<svg id="Layer_2" data-name="Layer 2" xmlns="http://www.w3.org/2000/svg" viewBox="0 0 150.82 150.72">
  <defs>
    <style>
      .cls-1 {
        fill: #fff;
      }
    </style>
  </defs>
  <g id="Layer_1-2" data-name="Layer 1">
    <path d="M0,75.49C-.02,33.76,33.56.08,75.28,0c41.52-.08,75.48,33.82,75.53,75.38.05,41.63-33.68,75.33-75.43,75.34C33.52,150.73.02,117.3,0,75.49ZM117.72,75.73c.22-23.42-18.95-42.8-42.36-42.81-23.11-.02-42.34,19.04-42.6,42.21-.25,22.87,18.72,42.35,41.5,42.62,24.15.28,43.24-18.17,43.46-42.01Z"/>
    <path class="cls-1" d="M117.72,75.73c-.22,23.85-19.31,42.3-43.46,42.01-22.78-.27-41.75-19.75-41.5-42.62.26-23.17,19.49-42.23,42.6-42.21,23.41.02,42.58,19.39,42.36,42.81ZM54.05,103.17c7.55,7.45,23.89,10.37,32.56,5.94.9-.46,1.99-2.1,1.79-2.9-1.99-8.13-4.24-16.2-6.49-24.56-12.38,4.66-21.62,11.18-27.87,21.52ZM48.49,98.81c7.79-11.39,17.54-19.33,29.71-23.71-.7-4.37-2.51-5.45-6.35-4.4-4.96,1.36-10.08,2.22-15.19,2.9-5.56.74-11.17,1.03-17.09,1.54.27,8.83,2.85,16.31,8.92,23.67ZM73.44,64.04c-5.06-7.82-9.16-14.14-13.39-20.68-10.28,5.53-16.58,13.11-19.68,25.16,11.34-1.54,21.44-2.9,33.07-4.48ZM98.8,50.15c-9.49-8.75-19.11-11.77-30.75-9.23,3.97,6.4,7.56,12.34,11.37,18.13.5.77,2.5,1.45,3.17,1.06,5.49-3.17,10.83-6.61,16.22-9.96ZM104.68,53.65c-7.78,5.35-14.04,9.66-21.02,14.46,1.33,1.72,2.63,5.01,4.17,5.12,7.52.55,15.1.25,24.07.25-2.42-6.65-4.78-13.13-7.21-19.83ZM96.06,104.41c8.01-6.19,12.57-13.41,14.54-23.73-7.49-.46-14.2-.87-21.46-1.31,2.48,8.98,4.58,16.59,6.92,25.04Z"/>
    <path d="M54.05,103.17c6.25-10.33,15.49-16.86,27.87-21.52,2.25,8.36,4.49,16.43,6.49,24.56.2.8-.9,2.44-1.79,2.9-8.66,4.43-25.01,1.51-32.56-5.94Z"/>
    <path d="M48.49,98.81c-6.07-7.37-8.65-14.84-8.92-23.67,5.92-.51,11.54-.8,17.09-1.54,5.11-.68,10.23-1.54,15.19-2.9,3.84-1.05,5.65.03,6.35,4.4-12.17,4.38-21.92,12.32-29.71,23.71Z"/>
    <path d="M73.44,64.04c-11.63,1.57-21.73,2.94-33.07,4.48,3.1-12.05,9.4-19.63,19.68-25.16,4.24,6.54,8.33,12.86,13.39,20.68Z"/>
    <path d="M98.8,50.15c-5.39,3.35-10.73,6.79-16.22,9.96-.67.39-2.67-.3-3.17-1.06-3.81-5.79-7.39-11.73-11.37-18.13,11.64-2.54,21.26.48,30.75,9.23Z"/>
    <path d="M104.68,53.65c2.44,6.7,4.8,13.18,7.21,19.83-8.96,0-16.55.3-24.07-.25-1.53-.11-2.84-3.4-4.17-5.12,6.98-4.8,13.24-9.11,21.02-14.46Z"/>
    <path d="M96.06,104.41c-2.34-8.45-4.44-16.06-6.92-25.04,7.26.44,13.96.86,21.46,1.31-1.96,10.32-6.53,17.54-14.54,23.73Z"/>
  </g>
</svg>