<?xml version="1.0" encoding="UTF-8"?>
<svg id="Layer_2" data-name="Layer 2" xmlns="http://www.w3.org/2000/svg" viewBox="0 0 151.51 151.28">
  <defs>
    <style>
      .cls-1 {
        fill: #fff;
      }
    </style>
  </defs>
  <g id="Layer_1-2" data-name="Layer 1">
    <g>
      <path d="M151.51,74.72c.18,42.33-33.45,76.49-75.37,76.56C33.95,151.35.05,117.59,0,75.45-.05,33.94,33.72.14,75.4,0c41.83-.14,75.93,33.34,76.11,74.72Z"/>
      <path class="cls-1" d="M102.05,37.45v10.49l.39.39h14.9l-2.97,10.36-2.87.5-.12,43.39c.1.89,1.18.53,1.81,1.04,1.21.98.67,3.65.78,5.04.85-.33,2.85.52,2.85,1.42v3.75h-27.46c.08-1.27-.21-2.57.2-3.81.64-1.93,2.4-1.06,2.8-1.61.44-2.16-.83-4.57,1.94-5.36v-24.06c-2.87-23.15-35.25-23.14-38.11,0v24.22c3.9-.36,2.44,2.97,3.1,5.32,3.34-.09,2.89,2.8,2.87,5.29h-27.72c.05-1.29-.2-2.94.41-4.12.75-1.44,2.27-.86,2.59-1.3.37-2.13-.77-5.23,2.44-5.2v-44.28l-2.72-.26-2.98-10.36h13.86l.39-.39v-10.49h53.63Z"/>
    </g>
  </g>
</svg>