<?xml version="1.0" encoding="UTF-8"?>
<svg id="Layer_2" data-name="Layer 2" xmlns="http://www.w3.org/2000/svg" viewBox="0 0 151.56 149.66">
  <g id="Layer_1-2" data-name="Layer 1">
    <path d="M63.51,97.6v51.73C36.65,152.43,3.14,116.25.25,81.26-3.23,39.07,29.61,1.99,72.14.08c42.54-1.92,78.7,31.66,79.41,73.43.77,45.03-35.31,74.02-63.52,76.15-.12-1.28-.35-2.56-.35-3.85-.03-14.5.1-29-.1-43.5-.05-3.81,1.25-4.92,4.9-4.78,4.11.16,9.53,1.2,12.01-.92,2.47-2.1,2.06-7.64,2.79-11.7.52-2.91.85-5.85,1.36-9.5-5.78,0-11.08-.15-16.36.05-3.33.13-5.01-.78-4.69-4.44.25-2.81-.02-5.66.06-8.5.23-8.57,3.96-12.39,12.59-12.83,2.94-.15,5.9-.02,9.42-.02,0-5.93.14-11.22-.13-16.49-.05-.96-1.77-2.55-2.8-2.62-6.63-.45-13.38-1.38-19.9-.6-14.51,1.74-22.53,12.06-23.12,28.5-.16,4.49-.13,9,0,13.5.07,2.62-.99,3.56-3.54,3.48-4-.12-8,.07-12-.05-2.59-.08-3.57.96-3.51,3.53.11,5,.14,10-.01,15-.09,2.91,1.19,3.77,3.89,3.7,4.79-.12,9.59-.03,14.94-.03Z"/>
  </g>
</svg>