<?xml version="1.0" encoding="UTF-8"?>
<svg id="Layer_2" data-name="Layer 2" xmlns="http://www.w3.org/2000/svg" viewBox="0 0 151.51 151.26">
  <defs>
    <style>
      .cls-1 {
        fill: #fff;
      }
    </style>
  </defs>
  <g id="Layer_1-2" data-name="Layer 1">
    <g>
      <path d="M75.44,151.26C33.62,151.17-.1,117.22,0,75.3.1,33.31,34.07-.09,76.58,0c41.57.09,75.08,34.27,74.93,76.44-.14,41.33-34.28,74.9-76.07,74.82ZM31.43,75.33c0,5.99-.06,11.98.01,17.97.17,14.65,11.02,26.14,25.67,26.57,12.47.36,24.97.36,37.44-.02,14.35-.44,25.35-11.82,25.59-26.16.2-12.14.23-24.3-.01-36.44-.29-14.54-11.62-25.86-26.18-26.14-12.14-.24-24.3-.28-36.44.02-14.88.36-25.86,11.81-26.06,26.73-.08,5.82-.01,11.65-.01,17.47Z"/>
      <path class="cls-1" d="M31.44,75.33c0-5.82-.06-11.65.01-17.47.2-14.92,11.18-26.37,26.06-26.73,12.14-.3,24.3-.26,36.44-.02,14.56.29,25.89,11.6,26.18,26.14.24,12.14.21,24.3.01,36.44-.24,14.34-11.24,25.73-25.59,26.16-12.47.38-24.97.38-37.44.02-14.64-.43-25.49-11.91-25.67-26.57-.07-5.99-.01-11.98-.01-17.97ZM75.59,111.25c6,0,12,.12,17.99-.03,10.36-.25,17.89-7.74,18.05-18.16.18-11.66.16-23.33,0-34.99-.14-10.23-7.26-17.93-17.43-18.24-12.31-.38-24.66-.39-36.97,0-9.79.31-16.96,7.57-17.25,17.37-.36,12.15-.35,24.33-.02,36.48.28,10.18,7.93,17.32,18.13,17.54,5.83.12,11.66.02,17.49.02Z"/>
      <path d="M75.59,111.25c-5.83,0-11.66.1-17.49-.02-10.2-.22-17.85-7.35-18.13-17.54-.33-12.15-.34-24.33.02-36.48.29-9.8,7.45-17.06,17.25-17.37,12.31-.4,24.66-.39,36.97,0,10.17.32,17.29,8.01,17.43,18.24.16,11.66.17,23.33,0,34.99-.16,10.42-7.68,17.91-18.05,18.16-5.99.15-11.99.03-17.99.03ZM97.88,75.85c.11-12.33-9.3-22.08-21.45-22.2-12.28-.12-22.01,9.35-22.13,21.54-.12,12.28,9.32,22.05,21.47,22.23,12.2.18,21.99-9.37,22.1-21.57ZM100.42,46.25c-.74,0-1.48-.02-2.22-.03-1.41,2.05-3.99,4.16-3.89,6.14.08,1.77,2.9,4.44,4.89,4.85,3.14.64,5.58-1.91,5.08-5.11-.33-2.1-2.51-3.91-3.86-5.85Z"/>
      <path class="cls-1" d="M97.88,75.85c-.11,12.2-9.91,21.75-22.1,21.57-12.15-.18-21.59-9.95-21.47-22.23.12-12.19,9.85-21.66,22.13-21.54,12.14.12,21.56,9.87,21.45,22.2ZM76,61.71c-7.41.07-13.67,6.3-13.73,13.68-.06,7.49,6.54,14.13,13.97,14.04,7.3-.08,13.63-6.45,13.71-13.78.08-7.61-6.32-14.02-13.94-13.95Z"/>
      <path class="cls-1" d="M100.42,46.25c1.35,1.94,3.53,3.75,3.86,5.85.5,3.2-1.95,5.75-5.08,5.11-1.99-.41-4.81-3.08-4.89-4.85-.09-1.98,2.48-4.09,3.89-6.14.74,0,1.48.02,2.22.03Z"/>
      <path d="M76,61.71c7.62-.07,14.02,6.33,13.94,13.95-.08,7.33-6.41,13.69-13.71,13.78-7.43.09-14.03-6.55-13.97-14.04.06-7.38,6.32-13.62,13.73-13.68Z"/>
    </g>
  </g>
</svg>