<?xml version="1.0" encoding="UTF-8"?>
<svg id="Layer_2" data-name="Layer 2" xmlns="http://www.w3.org/2000/svg" viewBox="0 0 151.43 151.4">
  <g id="Layer_1-2" data-name="Layer 1">
    <path d="M75.73,0c41.66-.02,75.65,33.73,75.7,75.18.05,42.3-33.63,76.23-75.67,76.22C33.88,151.4,0,117.54,0,75.7,0,33.88,33.87.02,75.73,0ZM68.1,108.66c2.43,0,4.55.01,6.66,0,8.75-.06,7.7.75,7.8-7.73.08-6.65-.21-13.34.41-19.94.53-5.7,5.33-8.72,10.29-7.26,4.31,1.27,5.26,4.81,5.32,8.65.13,7.49-.07,14.98.19,22.46.04,1.29,1.52,3.45,2.58,3.62,3.08.49,6.31.35,9.45.06.94-.08,2.56-1.45,2.54-2.19-.26-11.78-.25-23.6-1.38-35.3-.58-5.96-5.49-9.19-11.47-10.27-6.65-1.2-12.5.39-17.49,5.08-1.99-4.77-6.7-5.81-14.9-3.47v46.31ZM58.78,84.86c0-4.49.06-8.97-.01-13.46-.19-11.49,1.83-9.64-10.03-10.05-4.09-.14-5.06,1.38-4.99,5.18.21,10.63-.05,21.27.1,31.9.17,11.69-2.36,10,10.75,10.27,3.33.07,4.31-1.23,4.23-4.4-.18-6.48-.05-12.96-.05-19.44ZM51.34,38.22c-4.76.02-8.59,3.81-8.59,8.49,0,4.67,3.87,8.51,8.58,8.53,4.75.01,8.52-3.75,8.54-8.52.03-4.74-3.77-8.52-8.54-8.49Z"/>
  </g>
</svg>