<?xml version="1.0" encoding="UTF-8"?>
<svg id="Layer_2" data-name="Layer 2" xmlns="http://www.w3.org/2000/svg" viewBox="0 0 151.43 151.35">
  <defs>
    <style>
      .cls-1 {
        fill: #fff;
      }
    </style>
  </defs>
  <g id="Layer_1-2" data-name="Layer 1">
    <path d="M151.43,76.1c-.16,41.86-34.04,75.36-76.09,75.25C33.35,151.24-.18,117.17,0,74.81.17,33.56,34.49-.16,76.14,0c41.8.16,75.46,34.17,75.29,76.1ZM50.58,68.17c-2.5-.51-4.34-1.36-5.98-1.09-1.88.32-3.59,1.65-5.38,2.53.84,1.63,1.34,3.66,2.62,4.8,1.42,1.26,3.57,1.69,5.39,2.51,2.67,1.2,3.27,3.07,1.85,5.65-3.47,6.3-7.93,11.44-15.03,13.89-1.67.58-3.01,2.09-4.51,3.17,1.52,1.37,2.93,2.93,4.62,4.06,1.05.7,2.68.5,3.77,1.16,1.72,1.04,3.97,2.16,4.64,3.8,1.2,2.96,2.99,3.22,5.5,2.66,5.19-1.16,9.91-.16,14.17,3.04,9.21,6.91,18.13,6.49,27.66.05,3.4-2.3,8.34-3.01,12.62-3.13,3.5-.1,6.1.28,7.2-3.89.27-1.04,2.18-1.83,3.48-2.38,1.67-.71,3.66-.77,5.19-1.66,1.46-.84,2.51-2.38,3.74-3.61-1.3-1.06-2.44-2.57-3.93-3.09-5.75-2.02-10.14-5.6-13.44-10.65-4.19-6.41-3.93-7.3,3.1-10.43.76-.34,1.78-.52,2.2-1.12,1.03-1.49,2.81-3.58,2.39-4.69-.51-1.34-2.93-2.45-4.66-2.69-1.96-.28-4.07.5-6.44.87-.4-8.89,1.74-17.73-3.79-25.18-5.46-7.35-13.17-10.61-22.12-10.61-6.88,0-13.04,2.55-18.2,7.16-8.63,7.7-6.92,18.06-6.65,28.89Z"/>
    <path class="cls-1" d="M50.58,68.17c-.27-10.83-1.98-21.18,6.65-28.89,5.17-4.61,11.32-7.16,18.2-7.16,8.95,0,16.66,3.26,22.12,10.61,5.53,7.44,3.39,16.28,3.79,25.18,2.36-.37,4.48-1.15,6.44-.87,1.73.25,4.14,1.36,4.66,2.69.43,1.12-1.35,3.2-2.39,4.69-.41.6-1.44.78-2.2,1.12-7.03,3.13-7.29,4.02-3.1,10.43,3.3,5.05,7.69,8.63,13.44,10.65,1.49.52,2.63,2.03,3.93,3.09-1.23,1.23-2.29,2.77-3.74,3.61-1.54.88-3.52.95-5.19,1.66-1.3.55-3.2,1.34-3.48,2.38-1.1,4.18-3.7,3.8-7.2,3.89-4.27.12-9.21.83-12.62,3.13-9.52,6.44-18.44,6.87-27.66-.05-4.26-3.19-8.97-4.19-14.17-3.04-2.52.56-4.3.3-5.5-2.66-.66-1.64-2.91-2.75-4.64-3.8-1.09-.66-2.73-.46-3.77-1.16-1.69-1.13-3.09-2.68-4.62-4.06,1.49-1.08,2.84-2.59,4.51-3.17,7.1-2.45,11.56-7.59,15.03-13.89,1.42-2.58.82-4.45-1.85-5.65-1.82-.82-3.97-1.25-5.39-2.51-1.28-1.14-1.78-3.16-2.62-4.8,1.79-.89,3.5-2.22,5.38-2.53,1.64-.28,3.48.58,5.98,1.09Z"/>
  </g>
</svg>