<?xml version="1.0" encoding="UTF-8"?>
<svg id="Layer_2" data-name="Layer 2" xmlns="http://www.w3.org/2000/svg" viewBox="0 0 151.43 151.35">
  <g id="Layer_1-2" data-name="Layer 1">
    <path d="M75.75,151.35C33.87,151.38-.02,117.54,0,75.71.02,33.86,33.9-.02,75.73,0c41.91.02,75.7,33.8,75.7,75.69,0,41.92-33.72,75.62-75.68,75.65ZM66.9,45.47c-10.85,1.56-21.73,2.91-32.52,4.77-4.52.78-6.8,4.71-5.58,8.46,1.37,4.2,4.54,5.46,8.69,4.64,1.31-.26,2.59-.62,3.89-.88,16-3.15,32.15-4.12,48.07-.4,8.65,2.02,16.91,5.79,25.24,9.05,3.91,1.53,7.19,1.54,9.64-2.17,2.19-3.3.9-7.28-3.04-9.73-1.69-1.05-3.5-1.92-5.31-2.77-15.5-7.36-31.94-10.13-49.09-10.97ZM66.92,69.15c-8.86,1.26-17.75,2.39-26.58,3.82-3.58.58-5.74,2.94-4.86,6.77.82,3.54,3.53,4.57,6.94,4,1.15-.19,2.27-.59,3.42-.66,9.59-.63,19.19-1.8,28.78-1.66,10.92.16,21.27,3.42,30.98,8.58,3.25,1.73,6.32,1.25,8.02-2.26,1.6-3.29-.01-5.76-2.93-7.48-1-.59-2.05-1.1-3.1-1.61-12.79-6.3-26.41-8.78-40.68-9.49ZM65.57,89.73c-7.56,1.1-15.18,1.93-22.63,3.53-1.62.35-2.63,3.49-3.92,5.34,1.91,1.17,3.73,2.56,5.78,3.41.89.37,2.24-.52,3.39-.55,10.26-.25,20.6-1.28,30.76-.34,6.57.6,12.81,4.35,19.35,6.14,1.93.53,5.23-.08,6.4-1.45,2.02-2.36.58-5.04-2.04-6.64-1.56-.95-3.22-1.74-4.89-2.49-10.21-4.59-20.99-6.32-32.19-6.97Z"/>
  </g>
</svg>