<?xml version="1.0" encoding="UTF-8"?>
<svg id="Layer_2" data-name="Layer 2" xmlns="http://www.w3.org/2000/svg" viewBox="0 0 151.43 151.25">
  <defs>
    <style>
      .cls-1 {
        fill: #fff;
      }
    </style>
  </defs>
  <g id="Layer_1-2" data-name="Layer 1">
    <path d="M151.43,75.7c.02,41.86-33.78,75.56-75.78,75.55C33.76,151.25-.04,117.41,0,75.53.04,33.63,33.81,0,75.82,0c41.94,0,75.59,33.7,75.61,75.7ZM91.6,58.33c5.22,2.82,9.59,5.97,14.46,7.65,8.21,2.84,9.18,1.84,9.18-6.59,0-1.33-.12-2.68.02-3.99.33-3.03-.86-4.29-3.95-5.02-9.72-2.29-16.06-8.49-18.69-18.13-.73-2.68-1.71-3.87-4.66-3.81-12.01.25-9.68-1.11-9.93,9.65-.04,1.83,0,3.66,0,5.49-.06,17.14.01,34.29-.24,51.43-.11,7.61-6.61,13.65-14.3,13.99-7.36.33-13.98-5.13-15.15-12.52-1.14-7.16,3.68-14.11,11.18-16.05,1.56-.41,3.16-.68,5.14-1.1,0-3.32-.14-6.47.04-9.6.19-3.38-1.23-4.26-4.47-4.03-14.02.98-25.71,13.12-26.21,27.45-.53,14.89,9.86,27.75,24.05,29.78,18.03,2.58,33.16-10.11,33.49-28.35.22-12.12.04-24.25.04-36.26Z"/>
    <path class="cls-1" d="M91.6,58.33c0,12.01.18,24.14-.04,36.26-.33,18.24-15.46,30.93-33.49,28.35-14.19-2.03-24.58-14.9-24.05-29.78.51-14.33,12.2-26.46,26.21-27.45,3.24-.23,4.66.66,4.47,4.03-.18,3.13-.04,6.27-.04,9.6-1.98.42-3.58.69-5.14,1.1-7.5,1.95-12.32,8.89-11.18,16.05,1.17,7.38,7.79,12.84,15.15,12.52,7.69-.34,14.19-6.39,14.3-13.99.25-17.14.18-34.29.24-51.43,0-1.83-.04-3.66,0-5.49.25-10.77-2.08-9.41,9.93-9.65,2.94-.06,3.92,1.13,4.66,3.81,2.64,9.64,8.97,15.84,18.69,18.13,3.09.73,4.28,1.99,3.95,5.02-.14,1.32-.02,2.66-.02,3.99,0,8.43-.97,9.43-9.18,6.59-4.87-1.68-9.24-4.82-14.46-7.65Z"/>
  </g>
</svg>