<?xml version="1.0" encoding="UTF-8"?>
<svg id="Layer_2" data-name="Layer 2" xmlns="http://www.w3.org/2000/svg" viewBox="0 0 151.43 151.29">
  <defs>
    <style>
      .cls-1 {
        fill: #fff;
      }
    </style>
  </defs>
  <g id="Layer_1-2" data-name="Layer 1">
    <g>
      <path d="M75.49,0c42.09-.06,75.85,33.43,75.94,75.34.09,41.91-33.7,75.93-75.45,75.94C33.99,151.3.06,117.61,0,75.83-.06,33.84,33.57.06,75.49,0ZM34.81,118.44c5.21-1.38,9.29-2.22,13.19-3.56,6.17-2.11,12.01-2.78,18.25.27,3.16,1.54,7.09,1.89,10.7,2.07,19.75.99,37.19-10.94,43.48-29.49,6.18-18.23-.48-38.42-16.37-49.56-15.96-11.19-37.22-10.35-52.53,2.09-14.89,12.1-19.81,32.59-12.49,50.74,1.02,2.53,1.13,5.79.61,8.5-1.16,5.99-2.99,11.86-4.85,18.93Z"/>
      <path class="cls-1" d="M34.81,118.44c1.86-7.08,3.69-12.94,4.85-18.93.52-2.72.41-5.97-.61-8.5-7.32-18.15-2.4-38.64,12.49-50.74,15.31-12.44,36.56-13.28,52.53-2.09,15.89,11.14,22.56,31.33,16.37,49.56-6.29,18.55-23.73,30.47-43.48,29.49-3.62-.18-7.54-.53-10.7-2.07-6.24-3.05-12.08-2.38-18.25-.27-3.9,1.34-7.98,2.17-13.19,3.56ZM47.06,106.13c8.91-4.71,16.2-.55,23.97,1.62,15.34,4.27,31.21-3.11,39-17.23,7.54-13.67,4.87-30.82-6.51-41.8-11.42-11.02-28.55-13.1-42.01-5.09-13.86,8.24-20.9,24.55-16.01,39.52,2.44,7.47,6.01,14.4,1.56,22.99Z"/>
      <path d="M47.06,106.13c4.44-8.59.88-15.52-1.56-22.99-4.89-14.97,2.15-31.28,16.01-39.52,13.46-8,30.59-5.93,42.01,5.09,11.38,10.98,14.06,28.13,6.51,41.8-7.79,14.12-23.66,21.51-39,17.23-7.77-2.16-15.06-6.32-23.97-1.62ZM57.82,62.72c.35,2.11.45,3.27.74,4.39,3.04,11.48,17.94,24.86,29.84,25.87,3.18.27,6.99-1.57,9.79-3.48,2.61-1.78,3.31-4.99.37-7.7-4.04-3.71-9.13-4.86-10.93-1.89-2.94,4.85-5.91,3.19-8.92.81-2.84-2.25-5.52-4.79-7.81-7.59-.85-1.05-1.13-3.73-.39-4.72,3.06-4.09,1.23-7.63-.72-11.13-2.22-3.99-6.08-4.43-8.87-.87-1.56,2-2.31,4.63-3.11,6.3Z"/>
      <path class="cls-1" d="M57.82,62.72c.8-1.68,1.55-4.31,3.11-6.3,2.79-3.56,6.65-3.11,8.87.87,1.95,3.5,3.78,7.04.72,11.13-.74.98-.47,3.67.39,4.72,2.28,2.8,4.97,5.34,7.81,7.59,3,2.39,5.98,4.04,8.92-.81,1.8-2.97,6.89-1.82,10.93,1.89,2.94,2.7,2.24,5.92-.37,7.7-2.81,1.91-6.61,3.75-9.79,3.48-11.9-1.02-26.8-14.39-29.84-25.87-.3-1.11-.39-2.28-.74-4.39Z"/>
    </g>
  </g>
</svg>