<?xml version="1.0" encoding="UTF-8"?>
<svg id="Layer_2" data-name="Layer 2" xmlns="http://www.w3.org/2000/svg" viewBox="0 0 151.51 151.28">
  <defs>
    <style>
      .cls-1 {
        fill: #fff;
      }
    </style>
  </defs>
  <g id="Layer_1-2" data-name="Layer 1">
    <g>
      <path d="M151.51,74.72c.18,42.33-33.45,76.49-75.37,76.56C33.95,151.35.05,117.59,0,75.45-.05,33.94,33.72.14,75.4,0c41.83-.14,75.93,33.34,76.11,74.72Z"/>
      <g id="z9iMqj.tif">
        <path class="cls-1" d="M33.5,37.45l26.81.04,18.47,24.36,21.35-24.39h12.93l-28.24,32.37,33.2,44.02h-25.97l-20.4-26.65-.51.44-22.95,26.22h-12.93l30.23-34.61-31.97-41.7v-.07ZM102.71,106.12l-.09-.24-46.21-61.07h-7.69l46.88,61.32h7.1Z"/>
      </g>
    </g>
  </g>
</svg>