<?xml version="1.0" encoding="UTF-8"?>
<svg id="Layer_2" data-name="Layer 2" xmlns="http://www.w3.org/2000/svg" viewBox="0 0 150.85 150.73">
  <defs>
    <style>
      .cls-1 {
        fill: #fff;
      }
    </style>
  </defs>
  <g id="Layer_1-2" data-name="Layer 1">
    <g>
      <path d="M0,75.43C0,33.73,33.84-.14,75.35,0c41.68.14,75.43,33.88,75.5,75.46.07,41.51-33.87,75.33-75.53,75.27C33.41,150.67,0,117.27,0,75.43ZM75.18,103.86c7.66,0,15.32.12,22.97-.03,10.26-.21,17.57-7.54,17.78-17.75.13-6.66.06-13.32.02-19.98-.07-11.24-6.87-18.87-18-19.14-15.14-.37-30.3-.38-45.44.02-10.92.28-17.68,7.86-17.78,18.83-.06,6.49-.07,12.99,0,19.48.12,11.14,7.38,18.44,18.48,18.57,7.32.08,14.65.02,21.98.01Z"/>
      <path class="cls-1" d="M75.18,103.86c-7.33,0-14.65.07-21.98-.01-11.1-.13-18.36-7.43-18.48-18.57-.07-6.49-.06-12.99,0-19.48.1-10.97,6.86-18.54,17.78-18.83,15.14-.39,30.3-.39,45.44-.02,11.13.27,17.93,7.9,18,19.14.04,6.66.11,13.32-.02,19.98-.2,10.21-7.51,17.54-17.78,17.75-7.66.16-15.32.03-22.97.03ZM90.36,76.24c-7.92-4.29-14.38-7.93-20.97-11.3-2.66-1.36-4.06.03-4.05,2.9,0,5.3,0,10.6.02,15.9,0,3,1.6,3.99,4.18,2.76,6.54-3.1,12.99-6.38,20.82-10.26Z"/>
      <path d="M90.36,76.24c-7.83,3.87-14.28,7.16-20.82,10.26-2.58,1.22-4.17.23-4.18-2.76-.02-5.3-.02-10.6-.02-15.9,0-2.87,1.39-4.26,4.05-2.9,6.6,3.37,13.06,7.01,20.97,11.3Z"/>
    </g>
  </g>
</svg>