<?xml version="1.0" encoding="UTF-8"?>
<svg id="Layer_2" data-name="Layer 2" xmlns="http://www.w3.org/2000/svg" viewBox="0 0 150.42 149.9">
  <defs>
    <style>
      .cls-1 {
        fill: #000;
        stroke-width: 0px;
      }
    </style>
  </defs>
  <g id="Layer_1-2" data-name="Layer 1">
    <g id="pGIvh7">
      <g>
        <path class="cls-1" d="M39.83.54v48.23h70.03V.07c7.14,0,13.89-.1,20.63.11,1.06.03,2.18,1.39,3.11,2.31,5.31,5.28,12.57,9.77,15.29,16.17,2.71,6.37.98,14.69,1,22.16.05,33.15.02,66.3.02,99.45,0,8.05-1.58,9.63-9.6,9.63-43.65,0-87.29,0-130.94,0-7.72,0-9.36-1.65-9.36-9.37C0,96.72,0,52.9,0,9.09,0,1.76,1.77,0,9.15,0c9.66-.01,19.32.02,28.98.06.31,0,.63.17,1.71.49ZM74.98,138.05c12.15,0,24.3.03,36.44-.01,5.75-.02,7.59-1.75,7.61-7.33.06-13.65.06-27.29.01-40.94-.02-5.26-1.96-7.38-7.17-7.4-24.63-.08-49.26-.08-73.89,0-5.21.02-7.11,2.12-7.13,7.44-.05,13.48-.04,26.96,0,40.44.02,6.04,1.72,7.76,7.67,7.78,12.15.04,24.3.01,36.44.01Z"/>
        <path class="cls-1" d="M102.7,24.91c0,5.15-.07,10.29.03,15.44.06,2.94-1.16,4.36-4.12,4.21-.33-.02-.66,0-1,.01q-13.75.34-13.75-13.43c0-7.47.08-14.94-.05-22.41-.05-2.98,1.1-4.23,4.07-4.18,18.11.31,14.41-2.61,14.82,13.89.05,2.16,0,4.32,0,6.47Z"/>
      </g>
    </g>
  </g>
</svg>