<?xml version="1.0" encoding="UTF-8"?>
<svg id="Layer_2" data-name="Layer 2" xmlns="http://www.w3.org/2000/svg" viewBox="0 0 13.1 18.79">
  <defs>
    <style>
      .cls-1 {
        fill: #c1272d;
      }
    </style>
  </defs>
  <g id="Layer_1-2" data-name="Layer 1">
    <g id="NiQ47O.tif">
      <g>
        <path class="cls-1" d="M12.37,5.83v12.95H.72V5.83h11.65ZM3.4,7.85c-.2,0-.44.15-.49.35l-.02,7.85c.11.61.87.6,1.03.02l.02-7.69c-.02-.28-.25-.54-.54-.53ZM6.53,7.85c-.24,0-.5.24-.51.49l.02,7.81c.23.52.96.44,1.03-.14l-.02-7.77c-.05-.21-.31-.39-.52-.38ZM9.67,7.85c-.28.02-.49.26-.51.53.03,2.59-.06,5.2.05,7.78.22.5.91.44,1-.11l-.02-7.85c-.05-.2-.32-.36-.51-.35Z"/>
        <path class="cls-1" d="M13.1,4.79H0v-1.63c0-.32.58-.9.9-.9h2.57l.06-.06v-1.16s.09-.25.11-.29c.22-.46.66-.66,1.15-.7.96-.07,2.49-.06,3.46,0,.52.03.95.22,1.19.7.03.05.11.25.11.29v1.16l.06.06h2.61c.29,0,.86.61.86.9v1.63ZM4.54,1.24c-.05.24.04.64,0,.9h4.02v-.9s-.05-.09-.07-.1l-3.87-.02s-.08.1-.08.12Z"/>
      </g>
    </g>
  </g>
</svg>