<?xml version="1.0" encoding="UTF-8"?>
<svg id="Layer_1" data-name="Layer 1" xmlns="http://www.w3.org/2000/svg" viewBox="0 0 50 50">
  <defs>
    <style>
      .cls-1 {
        fill: #c62e41;
      }

      .cls-2 {
        fill: #303030;
      }

      .cls-3 {
        fill: #fff;
      }

      .cls-4 {
        fill: #c73243;
      }
    </style>
  </defs>
  <rect class="cls-1" x="7.01" y="36.43" width="38.03" height="12.08"/>
  <g>
    <path class="cls-3" d="M14.75,43.95v.49c0,.25-.05.48-.14.7s-.22.42-.39.59c-.16.17-.36.31-.58.41s-.46.15-.71.15c-.22,0-.44-.03-.66-.09s-.43-.16-.6-.31c-.18-.15-.33-.34-.44-.58-.12-.23-.17-.54-.17-.9v-4.39c0-.26.04-.5.13-.73s.22-.42.38-.58.36-.29.59-.39c.23-.09.48-.14.76-.14.54,0,.97.18,1.31.53.16.17.29.37.39.61.09.24.14.49.14.77v.45h-1.14v-.38c0-.22-.06-.42-.19-.58-.13-.16-.3-.25-.51-.25-.28,0-.47.09-.57.26-.09.18-.14.4-.14.67v4.07c0,.23.05.43.15.58.1.16.28.24.54.24.07,0,.15,0,.24-.04.09-.03.17-.07.24-.13s.12-.14.17-.25c.04-.1.07-.24.07-.39v-.39h1.14,0Z"/>
    <path class="cls-3" d="M15.61,40.13c0-.32.06-.6.17-.85s.26-.45.45-.62c.18-.16.38-.28.61-.36.23-.08.46-.12.69-.12s.46.04.69.12c.23.08.43.2.62.36.18.16.32.37.44.62s.17.53.17.85v4.21c0,.34-.06.62-.17.86s-.26.44-.44.59c-.19.16-.39.29-.62.37-.23.08-.46.12-.69.12s-.46-.04-.69-.12c-.23-.08-.43-.21-.61-.37-.19-.16-.34-.35-.45-.59s-.17-.53-.17-.86c0,0,0-4.21,0-4.21ZM16.75,44.34c0,.28.08.48.23.61s.33.2.54.2.39-.07.54-.2c.15-.13.23-.33.23-.61v-4.21c0-.28-.08-.48-.23-.61s-.33-.2-.54-.2-.39.07-.54.2c-.15.13-.23.33-.23.61v4.21Z"/>
    <path class="cls-3" d="M20.4,46.22v-7.97h1.1l1.72,4.8h.02v-4.8h1.14v7.97h-1.07l-1.75-4.79h-.02v4.79h-1.14Z"/>
    <path class="cls-3" d="M25.37,46.22v-7.97h1.1l1.72,4.8h.02v-4.8h1.14v7.97h-1.07l-1.75-4.79h-.02v4.79h-1.14Z"/>
    <path class="cls-3" d="M30.38,46.22v-7.97h3.4v1.07h-2.26v2.34h1.97v1.07h-1.97v2.34h2.26v1.14h-3.4Z"/>
    <path class="cls-3" d="M38.15,43.95v.49c0,.25-.05.48-.14.7s-.22.42-.39.59c-.16.17-.36.31-.58.41s-.46.15-.71.15c-.22,0-.44-.03-.66-.09s-.43-.16-.6-.31c-.18-.15-.33-.34-.44-.58-.12-.23-.17-.54-.17-.9v-4.39c0-.26.04-.5.13-.73s.22-.42.38-.58c.16-.16.36-.29.59-.39.23-.09.48-.14.76-.14.54,0,.97.18,1.31.53.16.17.29.37.39.61.09.24.14.49.14.77v.45h-1.14v-.38c0-.22-.06-.42-.19-.58-.13-.16-.3-.25-.51-.25-.28,0-.47.09-.57.26-.09.18-.14.4-.14.67v4.07c0,.23.05.43.15.58.1.16.28.24.54.24.07,0,.15,0,.24-.04.09-.03.17-.07.24-.13.07-.06.12-.14.17-.25.04-.1.07-.24.07-.39v-.39h1.14-.01Z"/>
    <path class="cls-3" d="M39.83,46.22v-6.89h-1.32v-1.07h3.78v1.07h-1.32v6.89h-1.14Z"/>
  </g>
  <g>
    <path class="cls-4" d="M27.49,20.32l.08.12h2.87V5.74h-2.86v9.53l-1.72-2.44-.02-.03s-.01-.02-.02-.03c-.8-1.33-1.64-2.74-2.48-4-.67-1.01-1.41-1.97-2.02-3.02h-2.72v29.2h11.84c-3.04-4.8-5.87-9.63-8.98-14.36v-9.53l6.04,9.27ZM25.81,32.15h-4.36v-6.67l4.36,6.67Z"/>
    <path class="cls-2" d="M41.19,30.31l1.97,1.97c-.17.19-.57.6-.64.66-3.05,2.63-8.03,2.85-11.02.05-5.35-5.02-1.57-13.91,5.99-13.47,4.34.25,5.61,2.56,5.73,2.74l-2,2c-.8-.91-1.18-1.07-1.42-1.2-3.02-1.69-7.08-.5-7.74,3.06-1,5.41,4.43,7.86,8.55,4.79.19-.14.36-.45.57-.59Z"/>
    <polygon class="cls-2" points="17.91 20.31 17.91 23.03 15.19 23.03 15.19 34.94 12.33 34.94 12.33 23.03 9.75 23.03 9.75 20.31 17.91 20.31"/>
    <rect class="cls-2" x="12.33" y="1.38" width="2.86" height="18.38"/>
  </g>
</svg>