<?xml version="1.0" encoding="UTF-8"?>
<svg id="Layer_1" xmlns="http://www.w3.org/2000/svg" version="1.1" viewBox="0 0 50 50">
  <!-- Generator: Adobe Illustrator 29.2.1, SVG Export Plug-In . SVG Version: 2.1.0 Build 116)  -->
  <defs>
    <style>
      .st0 {
        fill: #303030;
      }

      .st1 {
        fill: #fff;
      }

      .st2 {
        fill: #c73243;
      }

      .st3 {
        fill: #c62d40;
      }
    </style>
  </defs>
  <g>
    <path class="st2" d="M21.32,5.57s0,.08.03.11c.27.22.16.27.27.42.81,1.18,1.5,2.37,2.32,3.54,1.15,1.66,2.16,3.39,3.27,5.04.03.05.21.14.23.18.06.13-.07.3.16.25V5.57h2.86v14.71h-2.86s.02-.16-.02-.25c-.01-.03-.2-.13-.23-.18-.36-.53-.65-1.2-1-1.73-1.54-2.35-3.22-4.63-4.63-7.08-.02-.04-.17-.2-.25-.16v9.54s.09-.02.12.02c.04.05,0,.17.04.23.05.09.44.49.5.59.62,1.04,1.19,2.08,1.82,3.09,1.88,3.05,3.8,5.98,5.68,9.04.19.31.52.79.68,1.09.04.07,0,.17.04.24.03.04.15-.03.12.08h-11.85V5.57h2.72ZM21.46,25.32v6.68h4.36c.09-.29-.16-.29-.25-.43-1.08-1.63-2.12-3.36-3.18-5-.08-.13-.43-.47-.5-.59-.05-.08-.13-.42-.18-.5-.02-.03-.2-.23-.25-.16Z"/>
    <path class="st0" d="M37.52,19.35c.43.2.57.05,1.01.11.22.03,1.19.34,1.44.44,1.11.45,1.55.82,2.5,1.59.05.04.18,0,.23.04.06.06.55.54.57.57.23.49-.09.32-.13.36-.08.08.16.32-.26.29l-1.42,1.48c-.15.02-.08-.06-.13-.11-.19-.16-.37-.42-.54-.55-.27-.22-.84-.53-1.15-.71s-.82-.48-1.06-.54c-.53-.12-2.34-.27-2.9-.14-.03,0-.47.26-.5.27-.69.15-1.96.99-2.38,1.66-.04.07-.14.43-.18.5-.22.36-.25.42-.41.82-.26.64-.36,1.84-.25,2.65.02.13.13.09.14.14.03.14-.03.31,0,.45.01.05.12.04.13.09.15.7.75,1.77,1.38,2.25.2.15.7.32.91.45.19.12.38.34.61.39.31.07.72.07,1,.14.06.01.02.12.14.14.25.03,1.06.03,1.3,0,.13-.02.09-.13.14-.14.17-.04.42.04.59,0,.05-.01.04-.12.09-.13,1.05-.23,1.19-.42,2.02-1.07.05-.04.18,0,.23-.04.25-.21.74-1.07,1.09-.5.04.07,0,.18.05.23.31.43,1.08.97,1.46,1.4.04.06.04.14.02.21-.01.05-.63.65-.7.71-.21.17-1.94,1.35-2.07,1.38-.97.22-1.56.56-2.71.61-.61.03-2.25.06-2.78-.07-.05-.01-.04-.12-.09-.13-.14-.03-.31.03-.45,0-.05-.01-.04-.12-.09-.13-.65-.14-1.69-.56-2.25-.98-.11-.08-.52-.61-.59-.64-.09-.04-.23,0-.25-.02s.02-.17-.02-.25-.67-.58-.78-.72c-.29-.39-.67-1.25-.86-1.73-.11-.28-.32-.74-.38-1.02-.04-.17.04-.41,0-.59-.01-.05-.12-.04-.13-.09-.04-.17-.04-2.46,0-2.63.05-.22.09-.28.13-.63.01-.1.24-.74.3-.89.37-.9.67-1.3,1.32-2.09.04-.05,0-.18.04-.23.52-.61,1.79-1.45,2.49-1.79.19-.09.83-.39.94-.41.49-.11,2.78-.59,3.21-.39Z"/>
    <polygon class="st0" points="17.92 20.15 17.92 22.87 15.19 22.87 15.19 34.79 12.33 34.79 12.33 22.87 9.74 22.87 9.74 20.15 17.92 20.15"/>
    <rect class="st0" x="12.33" y="1.21" width="2.86" height="18.39"/>
  </g>
  <rect class="st3" x="7" y="36.26" width="38.03" height="12.08"/>
  <g>
    <path class="st1" d="M14.74,43.78v.49c0,.25-.05.48-.14.7-.09.22-.22.42-.39.59-.16.17-.36.31-.58.41-.22.1-.46.15-.71.15-.22,0-.44-.03-.66-.09s-.43-.16-.6-.31c-.18-.15-.33-.34-.44-.58-.12-.23-.17-.54-.17-.9v-4.39c0-.26.04-.5.13-.73s.22-.42.38-.58.36-.29.59-.39c.23-.09.48-.14.76-.14.54,0,.97.18,1.31.53.16.17.29.37.39.61.09.24.14.49.14.77v.45h-1.14v-.38c0-.22-.06-.42-.19-.58-.13-.16-.3-.25-.51-.25-.28,0-.47.09-.57.26-.09.18-.14.4-.14.67v4.07c0,.23.05.43.15.58.1.16.28.24.54.24.07,0,.15-.01.24-.04.09-.03.17-.07.24-.13.07-.06.12-.14.17-.25.04-.1.07-.24.07-.39v-.39h1.14Z"/>
    <path class="st1" d="M15.6,39.96c0-.32.06-.6.17-.85s.26-.45.45-.62c.18-.16.38-.28.61-.36.23-.08.46-.12.69-.12s.46.04.69.12c.23.08.43.2.62.36.18.16.32.37.44.62s.17.53.17.85v4.21c0,.34-.06.62-.17.86-.11.24-.26.44-.44.59-.19.16-.39.29-.62.37-.23.08-.46.12-.69.12s-.46-.04-.69-.12c-.23-.08-.43-.21-.61-.37-.19-.16-.34-.35-.45-.59-.11-.24-.17-.53-.17-.86v-4.21ZM16.74,44.17c0,.28.08.48.23.61.15.13.33.2.54.2s.39-.07.54-.2c.15-.13.23-.33.23-.61v-4.21c0-.28-.08-.48-.23-.61-.15-.13-.33-.2-.54-.2s-.39.07-.54.2c-.15.13-.23.33-.23.61v4.21Z"/>
    <path class="st1" d="M20.39,46.05v-7.97h1.1l1.72,4.8h.02v-4.8h1.14v7.97h-1.07l-1.75-4.79h-.02v4.79h-1.14Z"/>
    <path class="st1" d="M25.36,46.05v-7.97h1.1l1.72,4.8h.02v-4.8h1.14v7.97h-1.07l-1.75-4.79h-.02v4.79h-1.14Z"/>
    <path class="st1" d="M30.37,46.05v-7.97h3.4v1.07h-2.26v2.34h1.97v1.07h-1.97v2.34h2.26v1.14h-3.4Z"/>
    <path class="st1" d="M38.14,43.78v.49c0,.25-.05.48-.14.7-.09.22-.22.42-.39.59-.16.17-.36.31-.58.41-.22.1-.46.15-.71.15-.22,0-.44-.03-.66-.09s-.43-.16-.6-.31c-.18-.15-.33-.34-.44-.58-.12-.23-.17-.54-.17-.9v-4.39c0-.26.04-.5.13-.73s.22-.42.38-.58c.16-.16.36-.29.59-.39.23-.09.48-.14.76-.14.54,0,.97.18,1.31.53.16.17.29.37.39.61.09.24.14.49.14.77v.45h-1.14v-.38c0-.22-.06-.42-.19-.58-.13-.16-.3-.25-.51-.25-.28,0-.47.09-.57.26-.09.18-.14.4-.14.67v4.07c0,.23.05.43.15.58.1.16.28.24.54.24.07,0,.15-.01.24-.04.09-.03.17-.07.24-.13.07-.06.12-.14.17-.25.04-.1.07-.24.07-.39v-.39h1.14Z"/>
    <path class="st1" d="M39.82,46.05v-6.89h-1.32v-1.07h3.78v1.07h-1.32v6.89h-1.14Z"/>
  </g>
</svg>